HIERARCHY
ROOT Hips
{
  OFFSET 0 0 0
  CHANNELS 6 Xposition Yposition Zposition Zrotation Yrotation Xrotation
  JOINT LeftThigh
  {
    OFFSET 8.409438 0 -5.917753
    CHANNELS 3 Zrotation Yrotation Xrotation
    JOINT LeftLeg
    {
      OFFSET 0 0 -42.358652
      CHANNELS 3 Zrotation Yrotation Xrotation
      JOINT LeftFoot
      {
        OFFSET 0 0 -39.357303
        CHANNELS 3 Zrotation Yrotation Xrotation
      }
    }
  }
  JOINT RightThigh
  {
    OFFSET -8.409438 0 -5.917753
    CHANNELS 3 Zrotation Yrotation Xrotation
    JOINT RightLeg
    {
      OFFSET 0 0 -42.358652
      CHANNELS 3 Zrotation Yrotation Xrotation
      JOINT RightFoot
      {
        OFFSET 0 0 -39.357303
        CHANNELS 3 Zrotation Yrotation Xrotation
      }
    }
  }
  JOINT SpineLow
  {
    OFFSET 0 0 4.719101
    CHANNELS 3 Zrotation Yrotation Xrotation
    JOINT SpineMid
    {
      OFFSET 0 0 12.899191
      CHANNELS 3 Zrotation Yrotation Xrotation
      JOINT Chest
      {
        OFFSET 0 0 12.899191
        CHANNELS 3 Zrotation Yrotation Xrotation
        JOINT LeftShoulder
        {
          OFFSET 7.550562 1.41573 9.438202
          CHANNELS 3 Zrotation Yrotation Xrotation
          JOINT LeftArm
          {
            OFFSET 9.155056 0 4.247191
            CHANNELS 3 Zrotation Yrotation Xrotation
            JOINT LeftForearm
            {
              OFFSET 0 0 25.771955
              CHANNELS 3 Zrotation Yrotation Xrotation
              JOINT LeftHand
              {
                OFFSET 0 0 25.197169
                CHANNELS 3 Zrotation Yrotation Xrotation
              }
            }
          }
        }
        JOINT RightShoulder
        {
          OFFSET -7.550562 1.41573 9.438202
          CHANNELS 3 Zrotation Yrotation Xrotation
          JOINT RightArm
          {
            OFFSET -9.155056 0 4.247191
            CHANNELS 3 Zrotation Yrotation Xrotation
            JOINT RightForearm
            {
              OFFSET 0 0 -25.771955
              CHANNELS 3 Zrotation Yrotation Xrotation
              JOINT RightHand
              {
                OFFSET 0 0 -25.197169
                CHANNELS 3 Zrotation Yrotation Xrotation
              }
            }
          }
        }
        JOINT Neck
        {
          OFFSET 0 0 15.101124
          CHANNELS 3 Zrotation Yrotation Xrotation
          JOINT Head
          {
            OFFSET 0 0 11.325843
            CHANNELS 3 Zrotation Yrotation Xrotation
            End Site
            {
              OFFSET 0 0 14.157303
            }
          }
        }
      }
    }
  }
}
MOTION
Frames: 14
Frame Time: 0.0
0.0  101.685394  0.0  -121.366328  43.198349  154.982803  68.930902  -22.634933  -70.302691  -5.594825  23.681232  46.088059  -13.414599  -2.511045  -6.539535  -35.057864  47.116145  -57.83258  1.365898  -2.360182  67.504081  -11.70013  -14.033453  -18.608449  -5.376715  -1.171536  2.478534  -14.806417  -2.631165  6.999555  -14.806418  -2.631165  6.999556  -8.059745  33.760633  5.681184  103.69972  54.48701  177.517495  -30.223476  -31.079744  84.218427  29.584564  -12.115276  12.05283  4.676406  0.729108  25.992644  32.52019  43.406792  22.149072  -20.216132  -1.836374  -148.446472  56.401296  19.174924  34.407216  -1.41002  -10.757985  12.327693  -0.83544  -8.10073  9.19336  
0.0  101.685394  0.0  -120.328168  43.899181  155.969595  68.747729  -23.674791  -70.592274  -2.767099  22.453242  48.196224  -14.770817  -2.340065  -6.541551  -35.342368  46.736995  -60.388747  1.299123  -4.829522  71.496825  -13.383655  -13.685879  -18.295127  -5.427729  -1.18722  2.4762  -14.947508  -2.668735  6.998541  -14.947507  -2.668735  6.998541  -8.983937  33.782659  4.140388  102.471649  54.854379  176.334344  -30.589045  -31.819109  84.002019  29.417416  -13.278432  11.54617  4.032  0.973895  25.165985  32.43017  42.491944  22.75785  -20.131183  -1.920513  -148.021454  56.937539  19.101932  33.761689  -1.068076  -10.533786  12.174528  -0.587047  -7.925252  9.086409  
0.0  101.685394  0.0  -119.003032  44.929338  156.985215  68.212036  -23.957116  -69.655186  -1.94191  21.298845  49.058419  -15.153997  -2.167186  -6.569455  -36.288116  46.095749  -63.743074  0.752609  -6.278823  75.171966  -13.018606  -14.713206  -19.341376  -5.386247  -1.178018  2.454981  -14.832431  -2.653017  6.93733  -14.83243  -2.653017  6.93733  -9.864589  33.755596  3.219959  101.062332  55.272504  175.189639  -31.379556  -32.498824  83.800192  28.711547  -13.93418  10.543979  3.045992  1.165653  24.671157  32.268912  41.833056  23.09808  -19.847976  -2.136746  -147.45515  57.420419  19.180614  33.399527  -1.021091  -10.270195  12.112181  -0.558467  -7.726396  9.042335  
0.0  101.685394  0.0  -116.918466  46.11293  158.586463  68.952651  -23.589518  -68.541234  -2.997923  21.519966  48.809058  -14.428219  -2.151895  -6.339251  -37.45817  44.520412  -67.640312  0.472147  -6.018396  78.971954  -12.686162  -14.416205  -18.398006  -5.277119  -1.147648  2.385975  -14.52862  -2.597461  6.739151  -14.528621  -2.597461  6.739151  -10.196183  33.648798  3.004966  100.176187  55.773037  174.437302  -32.155064  -32.765841  83.669317  28.55021  -14.620578  10.160531  2.125756  1.210942  24.648759  32.092021  41.363406  23.077448  -19.223756  -2.48435  -146.794975  57.944548  19.43362  33.345919  -0.988607  -10.011355  12.221718  -0.537729  -7.531778  9.126485  
0.0  101.685394  0.0  -114.561068  47.126889  160.085818  69.877773  -23.453041  -67.270781  -4.797804  22.333889  47.850318  -13.026611  -2.215817  -5.795191  -38.191844  42.279177  -70.797343  0.788791  -3.811396  82.835534  -10.834271  -14.424395  -17.701898  -5.207657  -1.134727  2.363125  -14.336705  -2.574571  6.671821  -14.336705  -2.574572  6.671821  -9.906939  33.376572  3.215605  100.991456  56.29919  175.170125  -32.441573  -32.700574  83.696652  28.536675  -15.053726  9.883564  1.54578  1.218539  24.654353  32.021872  40.956704  22.91594  -18.344955  -2.887037  -146.09054  58.645379  19.797187  33.601897  -0.769168  -9.651147  12.305228  -0.379669  -7.257268  9.194717  
0.0  101.685394  0.0  -111.295875  48.056993  162.253867  71.286842  -23.834216  -66.283457  -6.549714  23.416725  46.791231  -11.054781  -2.268334  -5.110275  -37.755667  39.504663  -73.092779  1.737148  -0.095886  86.53541  -7.824442  -14.617015  -17.139024  -5.104481  -1.15868  2.359416  -14.057471  -2.65104  6.663517  -14.057471  -2.65104  6.663517  -9.248387  33.000787  3.562063  103.525148  56.606934  177.270563  -32.281369  -32.551462  83.92455  28.655238  -15.296897  9.78875  1.299026  1.215113  24.667744  32.119502  40.637433  22.564521  -17.386923  -3.281051  -145.339964  59.518461  20.290649  33.972402  -0.344866  -9.196326  12.314035  -0.071359  -6.907473  9.210345  
0.0  101.685394  0.0  -107.748517  48.872708  164.197166  72.58735  -25.116036  -65.300147  -7.638999  24.335444  46.084843  -9.300276  -2.38501  -4.44209  -36.394135  36.687425  -74.241096  3.353879  4.221319  89.972148  -4.426188  -14.832691  -16.572384  -5.017926  -1.179114  2.360662  -13.823398  -2.71519  6.668301  -13.823398  -2.71519  6.668301  -8.228547  32.746556  4.451842  107.066398  56.449929  -179.99323  -32.012389  -32.525066  84.432002  28.774191  -15.432483  9.964197  1.261265  1.254811  25.115751  32.344143  40.43429  22.048622  -16.467228  -3.649888  -144.481291  60.56564  20.814369  34.233973  0.126302  -8.65267  12.531487  0.273354  -6.490132  9.382445  
0.0  101.685394  0.0  -103.993371  49.969542  166.531384  73.418326  -26.532218  -63.97061  -7.763913  24.746896  45.973728  -8.010939  -2.564952  -3.912478  -34.674413  33.70013  -75.23539  5.504679  8.559317  93.175309  -0.992265  -14.914818  -15.997793  -4.890623  -1.165953  2.369642  -13.474529  -2.69071  6.685461  -13.474528  -2.69071  6.685461  -7.550854  32.312227  5.004438  110.550467  55.839914  -177.518844  -32.047452  -32.53458  85.193812  28.939714  -15.466945  10.391878  1.196675  1.145212  25.19011  32.623647  40.356731  21.428603  -15.643427  -3.965907  -143.500298  61.618477  21.220393  34.425271  0.600913  -8.186784  12.563501  0.619588  -6.130821  9.414611  
0.0  101.685394  0.0  -100.283151  51.24762  169.056946  73.464228  -28.069083  -62.331679  -6.979188  24.673204  46.384275  -7.333152  -2.774242  -3.415818  -32.856955  30.645202  -76.082276  7.891246  12.093451  96.179309  2.01867  -14.76818  -15.499126  -4.754173  -1.11245  2.373038  -13.095984  -2.558713  6.67901  -13.095984  -2.558713  6.67901  -7.145024  31.685349  5.366979  113.471875  54.98852  -175.74209  -32.515797  -32.446  86.108527  30.411172  -15.423347  10.111338  1.073436  0.912023  25.023331  32.991937  40.368759  20.722084  -14.968028  -4.203106  -142.40256  62.654314  21.618757  34.388011  1.121838  -7.83563  12.519914  1.002012  -5.856708  9.389717  
0.0  101.685394  0.0  -96.728096  52.735738  171.320597  72.5686  -29.943185  -60.21242  -5.648994  24.347964  47.20713  -7.175897  -3.083609  -2.923368  -31.257739  27.829133  -76.653194  10.203872  13.840999  98.93326  3.960652  -14.318583  -15.114533  -4.636905  -0.993162  2.425581  -12.764048  -2.236363  6.794537  -12.764048  -2.236363  6.794537  -6.958221  30.941047  5.453954  115.628221  53.976996  -174.841107  -33.41219  -32.220328  87.102608  30.451763  -15.450033  10.854897  1.000948  0.623067  24.624122  33.399819  40.408974  19.939069  -14.447981  -4.381359  -141.257512  63.686795  21.948113  34.300018  1.571985  -7.570089  12.393296  1.33226  -5.648531  9.301019  
0.0  101.685394  0.0  -93.840682  54.307333  173.069473  70.395877  -31.907139  -57.67016  -4.381741  23.975265  48.243314  -6.999817  -3.340389  -2.369014  -30.361982  25.401181  -77.222976  11.874636  13.747465  101.478349  4.868379  -13.565396  -14.874234  -4.53577  -0.84878  2.496816  -12.473538  -1.84093  6.95777  -12.473538  -1.84093  6.95777  -7.185296  30.123038  5.37097  117.109293  52.900753  -174.635267  -34.825514  -31.701653  87.771414  30.342298  -15.553985  12.228849  0.682049  0.319995  24.116453  33.846512  40.474177  19.080973  -14.144698  -4.473421  -140.137385  64.677057  22.191182  34.298043  2.029001  -7.386023  12.141868  1.667912  -5.50191  9.11848  
0.0  101.685394  0.0  -91.352841  55.806571  174.749999  67.332558  -33.71418  -55.020176  -3.552283  23.902334  49.352631  -6.819827  -3.568603  -1.921106  -29.878465  23.583686  -78.000525  12.2904  12.292358  103.895748  4.974265  -12.544804  -14.63573  -4.487783  -0.704719  2.543303  -12.327261  -1.445689  7.055924  -12.32726  -1.445689  7.055924  -7.189592  29.28179  5.327805  118.207114  51.76915  -174.779219  -35.94405  -31.080152  88.806035  30.367972  -15.582437  13.116482  0.618605  -0.03159  23.696849  34.248624  40.630939  18.131977  -13.98779  -4.529996  -139.088046  65.495525  22.373804  34.360028  2.299834  -7.204864  11.84833  1.863789  -5.361602  8.901861  
0.0  101.685394  0.0  -88.45822  57.272644  177.047118  64.032823  -35.005894  -52.300338  -3.840455  24.331458  50.058967  -6.077498  -3.552779  -1.389142  -29.215666  22.357354  -78.96154  11.449225  10.075087  106.168846  4.417376  -11.346953  -14.263679  -4.377656  -0.5712  2.538892  -12.011715  -1.095269  7.01748  -12.011715  -1.095269  7.017479  -7.16064  28.61498  5.486183  120.351211  51.020288  -174.921806  -36.645444  -30.145739  89.930826  29.93872  -15.621061  14.622932  0.522955  -0.312197  23.517173  34.559103  40.886401  17.005334  -13.876395  -4.612724  -138.106086  66.167447  22.531817  34.399031  2.534781  -7.017504  11.559177  2.032906  -5.217569  8.687895  
0.0  101.685394  0.0  -84.777533  58.643713  -179.811016  60.920058  -35.709349  -49.668919  -5.086935  25.152566  50.420791  -4.940844  -3.355377  -0.687601  -27.982383  21.45604  -79.881174  9.738407  7.820129  108.317351  3.523058  -10.055623  -13.70838  -4.19673  -0.446033  2.50745  -11.503903  -0.779584  6.907713  -11.503902  -0.779584  6.907713  -6.94387  28.149108  5.922043  121.154098  49.993964  -175.181251  -37.147373  -29.767463  90.774154  30.374317  -15.784353  15.558356  0.564097  -0.531213  23.520299  34.739894  41.186006  15.745394  -13.712962  -4.728002  -137.242691  66.728105  22.810335  34.462625  2.461469  -6.792308  11.220351  1.969965  -5.051212  8.432987  
